<svg width="552" height="563" viewBox="0 0 552 563" fill="none" xmlns="http://www.w3.org/2000/svg">
<path d="M533.261 0.0710144H269.14V383.746H533.261V0.0710144Z" fill="#F3F3F3"/>
<path d="M79.929 468.88H0.849976V562.897H79.929V468.88Z" fill="#FD8369"/>
<path d="M182.113 397.759H103.035V562.897H182.113V397.759Z" fill="#FD8369"/>
<path d="M284.292 315.969H205.214V562.903H284.292V315.969Z" fill="#FD8369"/>
<path d="M141.309 404.794H132.124V411.526H141.309V404.794Z" fill="#DE8E68"/>
<path d="M242.075 317.729H232.89V324.461H242.075V317.729Z" fill="#DE8E68"/>
<path d="M194.555 213.295C200.055 213.295 244.181 219.526 263.486 229.443C260.83 242.373 243.472 318.543 243.472 318.543H232.664C232.664 318.543 228.594 254.418 227.714 254.952C221.867 257.96 198.663 265.55 173.864 265.919" fill="#00D1C5"/>
<path d="M194.555 213.295L141.65 405.68H132.124V213.295" fill="#6FDED7"/>
<path d="M204.35 132.44C207.017 133.6 216.158 141.24 217.792 143.99C232.719 125.405 257.337 106.65 259.35 104.483C261.363 102.316 261.99 90.2435 261.99 87.6035C261.99 84.9635 265.631 77.929 269.14 77.929V109.581C269.14 109.581 227.945 167.359 221.163 167.359C216.763 167.359 195.033 157.811 192.013 154.923" fill="#DE8E68"/>
<path d="M170.8 121.802C176.234 113.002 207.65 126.631 207.65 130.839C207.65 135.046 196.001 154.423 190.781 154.148C186.623 153.95 165.174 130.938 170.8 121.802Z" fill="#FCC486"/>
<path d="M163.172 109.037C203.091 109.037 200.858 208.433 194.555 213.295C188.252 218.157 136.519 220.517 131.789 213.295C127.059 206.074 125.227 109.037 163.172 109.037Z" fill="#FED385"/>
<path d="M119.997 140.415C112.907 142.642 94.669 177.028 94.669 182.275C94.669 193.275 131.805 241.725 136.53 241.725C138.499 238.309 141.65 231.225 141.65 231.225C141.65 231.225 119.342 189.623 115.25 184.244C118.792 180.944 131.651 163.641 133.752 158.262C135.853 152.883 135.067 141.333 135.067 141.333L119.997 140.415Z" fill="#DE8E68"/>
<path d="M145.467 119.674C154.52 124.624 142.579 156.7 138.377 156.964C134.175 157.228 114.216 146.563 114.216 141.338C114.216 137.136 136.051 114.509 145.467 119.674Z" fill="#FED892"/>
<path d="M132.124 410.102V418.242H156.654V415.288L141.76 410.102H132.124Z" fill="black"/>
<path d="M232.488 323.718V331.858H257.024V328.91L242.13 323.718H232.488Z" fill="black"/>
<path d="M533.261 0.0710144H269.14V24.7825H533.261V0.0710144Z" fill="#DFDFDF"/>
<path d="M551.95 55.907H330.135V119.108H551.95V55.907Z" fill="#DFDFDF"/>
<path d="M541.396 68.139H343.087V73.8645H541.396V68.139Z" fill="#F9F9F9"/>
<path d="M541.396 81.779H343.087V87.5045H541.396V81.779Z" fill="#F9F9F9"/>
<path d="M541.396 95.4245H343.087V101.15H541.396V95.4245Z" fill="#F9F9F9"/>
<path d="M551.95 144.507H330.135V207.707H551.95V144.507Z" fill="#DFDFDF"/>
<path d="M359.681 194.925C370.076 194.925 378.502 186.499 378.502 176.104C378.502 165.709 370.076 157.283 359.681 157.283C349.286 157.283 340.86 165.709 340.86 176.104C340.86 186.499 349.286 194.925 359.681 194.925Z" fill="#F9F9F9"/>
<path d="M536.792 157.283H392.389V175.488H536.792V157.283Z" fill="#F9F9F9"/>
<path d="M536.792 181.659H392.389V188.347H536.792V181.659Z" fill="#F9F9F9"/>
<path d="M503.291 235.119H294.957V337.617H503.291V235.119Z" fill="white"/>
<path d="M173.077 89.479H157.265V111.913C157.265 117.485 173.077 117.578 173.077 111.913V89.479Z" fill="#D37C59"/>
<path d="M184.632 79.194C181.849 67.2755 173 59.1575 164.865 61.044C157.897 62.694 153.722 71.12 154.415 81.0035C153.217 81.3497 152.183 82.1169 151.505 83.1639C150.827 84.211 150.549 85.4677 150.723 86.7032C150.897 87.9386 151.511 89.0698 152.452 89.889C153.393 90.7081 154.598 91.1601 155.845 91.162C156.163 91.1589 156.48 91.1276 156.791 91.0685C160.564 100.154 168.017 105.814 174.941 104.197C183.076 102.31 187.415 91.107 184.632 79.194Z" fill="#DE8E68"/>
<path d="M158.453 84.7655C160.532 84.7655 160.895 81.8945 160.895 79.348C160.895 75.938 164.134 72.858 166.131 72.275C169.744 71.23 171.587 70.988 173.776 69.8C175.965 68.612 178.572 66.8245 178.572 66.8245C179.54 67.9914 180.421 69.2286 181.206 70.526C183.214 69.976 193.73 67.468 193.73 59.933C193.73 54.983 189.572 54.334 187.68 52.783C185.667 51.133 186.53 46.1445 181.08 46.1445C176.196 46.1445 173.792 51.276 170.668 53.2505C166.89 55.643 159.476 53.718 154.592 58.7505C152.221 61.1925 151.666 67.204 150.192 69.404C148.179 72.385 144.692 73.254 144.692 77.8025C144.692 81.141 147.524 86.7785 150.934 87.6035C150.934 84.3035 152.139 81.1465 154.581 81.1465C157.237 81.1465 155.4 84.7655 158.453 84.7655Z" fill="#DC4A7F"/>
</svg>
