<svg width="134" height="133" viewBox="0 0 134 133" fill="none" xmlns="http://www.w3.org/2000/svg">
<path d="M27.0045 133H0.255577V88.6822H27.0045V133ZM4.71372 128.568H22.5463V93.114H4.71372V128.568Z" fill="url(#paint0_linear)"/>
<path d="M98.3348 133H71.5859V75.3869H98.3348V133ZM76.0441 128.568H93.8767V79.8187H76.0441V128.568Z" fill="url(#paint1_linear)"/>
<path d="M134 133H107.251V97.5458H134V133ZM111.709 128.568H129.542V101.978H111.709V128.568Z" fill="url(#paint2_linear)"/>
<path d="M35.9208 133H62.6696V66.5233H35.9208V133ZM40.3789 70.9551H58.2115V128.568H40.3789V70.9551Z" fill="url(#paint3_linear)"/>
<path d="M67.1278 13.342C68.3588 13.342 69.3569 14.3331 69.3569 15.5579H73.815C73.803 12.7501 72.0191 10.2529 69.3569 9.31701V6.69429H64.8987V9.31701C61.8305 10.3914 59.9889 13.5097 60.5407 16.6972C61.0914 19.8836 63.8745 22.2109 67.1278 22.2055C68.3588 22.2055 69.3569 23.1966 69.3569 24.4214C69.3569 25.6451 68.3588 26.6373 67.1278 26.6373C65.8968 26.6373 64.8987 25.6451 64.8987 24.4214H60.4406C60.4525 27.2281 62.2365 29.7253 64.8987 30.6612V33.285H69.3569V30.6612C72.4251 29.5868 74.2667 26.4685 73.716 23.2821C73.1641 20.0946 70.3811 17.7673 67.1278 17.7737C65.8968 17.7737 64.8987 16.7816 64.8987 15.5579C64.8987 14.3331 65.8968 13.342 67.1278 13.342Z" fill="url(#paint4_linear)"/>
<path d="M20.3172 42.1485C21.5482 42.1485 22.5463 43.1396 22.5463 44.3644H27.0045C26.9925 41.5567 25.2086 39.0595 22.5463 38.1236V35.5009H18.0882V38.1236C15.0199 39.198 13.1783 42.3162 13.7302 45.5037C14.2809 48.6902 17.064 51.0175 20.3172 51.0121C21.5482 51.0121 22.5463 52.0032 22.5463 53.228C22.5463 54.4517 21.5482 55.4439 20.3172 55.4439C19.0862 55.4439 18.0882 54.4517 18.0882 53.228H13.63C13.642 56.0346 15.4259 58.5318 18.0882 59.4677V62.0915H22.5463V59.4677C25.6146 58.3933 27.4562 55.2751 26.9054 52.0887C26.3536 48.9011 23.5705 46.5738 20.3172 46.5803C19.0862 46.5803 18.0882 45.5881 18.0882 44.3644C18.0882 43.1396 19.0862 42.1485 20.3172 42.1485Z" fill="url(#paint5_linear)"/>
<path d="M113.938 37.7167C108.662 37.7135 103.598 39.7844 99.851 43.4772L84.0243 30.712C89.2378 22.634 87.9241 12.01 80.8973 5.42838C73.8705 -1.15329 63.1246 -1.82628 55.3218 3.82705C47.52 9.48039 44.8751 19.8555 49.0275 28.5199L36.0797 36.4974C29.4643 28.1153 17.4133 26.33 8.62875 32.4324C-0.156932 38.5347 -2.61566 50.3975 3.02777 59.4548C8.6712 68.512 20.4511 71.6086 29.8605 66.5071C39.2698 61.4066 43.0303 49.8857 38.4263 40.2648L51.3752 32.2874C54.8929 36.7635 60.1674 39.5301 65.8696 39.8904C71.5718 40.2507 77.1575 38.169 81.2162 34.1711L97.0418 46.9363C92.1243 54.6118 93.0614 64.6234 99.3209 71.2645C105.579 77.9057 115.569 79.4876 123.593 75.1077C131.617 70.729 135.638 61.5019 133.362 52.6881C131.086 43.8743 123.093 37.7124 113.938 37.7167ZM20.3172 64.3074C11.7003 64.3074 4.71372 57.3622 4.71372 48.7962C4.71372 40.2291 11.7003 33.285 20.3172 33.285C28.9353 33.285 35.9208 40.2291 35.9208 48.7962C35.911 57.3579 28.931 64.2977 20.3172 64.3074ZM67.1278 35.5009C58.5108 35.5009 51.5243 28.5556 51.5243 19.9896C51.5243 11.4225 58.5108 4.4784 67.1278 4.4784C75.7459 4.4784 82.7313 11.4225 82.7313 19.9896C82.7215 28.5513 75.7415 35.4911 67.1278 35.5009ZM113.938 73.171C105.321 73.171 98.3348 66.2258 98.3348 57.6598C98.3348 49.0927 105.321 42.1485 113.938 42.1485C122.556 42.1485 129.542 49.0927 129.542 57.6598C129.532 66.2214 122.552 73.1612 113.938 73.171Z" fill="url(#paint6_linear)"/>
<path d="M113.938 51.0121C115.169 51.0121 116.167 52.0032 116.167 53.228H120.626C120.614 50.4202 118.83 47.923 116.167 46.9871V44.3644H111.709V46.9871C108.641 48.0615 106.799 51.1798 107.351 54.3673C107.902 57.5537 110.685 59.8811 113.938 59.8756C115.169 59.8756 116.167 60.8667 116.167 62.0915C116.167 63.3153 115.169 64.3074 113.938 64.3074C112.707 64.3074 111.709 63.3153 111.709 62.0915H107.251C107.263 64.8982 109.047 67.3954 111.709 68.3313V70.9551H116.167V68.3313C119.236 67.2569 121.077 64.1386 120.527 60.9522C119.975 57.7647 117.192 55.4374 113.938 55.4439C112.707 55.4439 111.709 54.4517 111.709 53.228C111.709 52.0032 112.707 51.0121 113.938 51.0121Z" fill="url(#paint7_linear)"/>
<defs>
<linearGradient id="paint0_linear" x1="113.939" y1="145.799" x2="113.939" y2="0.779636" gradientUnits="userSpaceOnUse">
<stop stop-color="#DC4A7F"/>
<stop offset="1" stop-color="#00D1C5"/>
</linearGradient>
<linearGradient id="paint1_linear" x1="113.939" y1="145.799" x2="113.939" y2="0.779636" gradientUnits="userSpaceOnUse">
<stop stop-color="#DC4A7F"/>
<stop offset="1" stop-color="#00D1C5"/>
</linearGradient>
<linearGradient id="paint2_linear" x1="113.939" y1="145.799" x2="113.939" y2="0.779636" gradientUnits="userSpaceOnUse">
<stop stop-color="#DC4A7F"/>
<stop offset="1" stop-color="#00D1C5"/>
</linearGradient>
<linearGradient id="paint3_linear" x1="113.939" y1="145.799" x2="113.939" y2="0.779636" gradientUnits="userSpaceOnUse">
<stop stop-color="#DC4A7F"/>
<stop offset="1" stop-color="#00D1C5"/>
</linearGradient>
<linearGradient id="paint4_linear" x1="113.939" y1="145.799" x2="113.939" y2="0.779636" gradientUnits="userSpaceOnUse">
<stop stop-color="#DC4A7F"/>
<stop offset="1" stop-color="#00D1C5"/>
</linearGradient>
<linearGradient id="paint5_linear" x1="113.939" y1="145.799" x2="113.939" y2="0.779636" gradientUnits="userSpaceOnUse">
<stop stop-color="#DC4A7F"/>
<stop offset="1" stop-color="#00D1C5"/>
</linearGradient>
<linearGradient id="paint6_linear" x1="113.939" y1="145.799" x2="113.939" y2="0.779636" gradientUnits="userSpaceOnUse">
<stop stop-color="#DC4A7F"/>
<stop offset="1" stop-color="#00D1C5"/>
</linearGradient>
<linearGradient id="paint7_linear" x1="113.939" y1="145.799" x2="113.939" y2="0.779636" gradientUnits="userSpaceOnUse">
<stop stop-color="#DC4A7F"/>
<stop offset="1" stop-color="#00D1C5"/>
</linearGradient>
</defs>
</svg>
