<svg width="133" height="133" viewBox="0 0 133 133" fill="none" xmlns="http://www.w3.org/2000/svg">
<path d="M121.917 0H11.0833C8.14493 0.00351975 5.32789 1.17236 3.25012 3.25012C1.17236 5.32789 0.00351975 8.14493 0 11.0833V121.917C0.00351975 124.855 1.17236 127.672 3.25012 129.75C5.32789 131.828 8.14493 132.996 11.0833 133H121.917C124.855 132.996 127.672 131.828 129.75 129.75C131.828 127.672 132.996 124.855 133 121.917V11.0833C132.996 8.14493 131.828 5.32789 129.75 3.25012C127.672 1.17236 124.855 0.00351975 121.917 0ZM11.0833 4.43333H121.917C123.68 4.43333 125.372 5.13396 126.619 6.38107C127.866 7.62819 128.567 9.31964 128.567 11.0833V22.1667H4.43333V11.0833C4.43333 9.31964 5.13396 7.62819 6.38107 6.38107C7.62819 5.13396 9.31964 4.43333 11.0833 4.43333ZM4.43333 121.917V26.6H128.567V70.1553C127.307 70.4036 126.147 71.0137 125.228 71.9109L120.733 76.3908C119.673 75.8878 118.589 75.4394 117.483 75.0475V68.7167C117.483 66.953 116.783 65.2615 115.536 64.0144C114.288 62.7673 112.597 62.0667 110.833 62.0667H101.967C100.203 62.0667 98.5115 62.7673 97.2644 64.0144C96.0173 65.2615 95.3167 66.953 95.3167 68.7167V75.0475C94.2083 75.4417 93.1214 75.8938 92.0604 76.4018L87.5739 71.9131C86.3098 70.7058 84.6291 70.0321 82.8812 70.0321C81.1332 70.0321 79.4525 70.7058 78.1885 71.9131L71.9153 78.1841C71.2982 78.8001 70.8087 79.5317 70.4747 80.3371C70.1406 81.1425 69.9687 82.0059 69.9687 82.8778C69.9687 83.7498 70.1406 84.6132 70.4747 85.4186C70.8087 86.224 71.2982 86.9556 71.9153 87.5716L76.4041 92.0604C75.8943 93.1209 75.4414 94.2079 75.0475 95.3167H68.7167C66.953 95.3167 65.2615 96.0173 64.0144 97.2644C62.7673 98.5115 62.0667 100.203 62.0667 101.967V110.833C62.0667 112.597 62.7673 114.288 64.0144 115.536C65.2615 116.783 66.953 117.483 68.7167 117.483H75.0475C75.4415 118.591 75.8943 119.678 76.4041 120.737L71.9153 125.226C71.0163 126.145 70.4047 127.306 70.1553 128.567H11.0833C9.31964 128.567 7.62819 127.866 6.38107 126.619C5.13396 125.372 4.43333 123.68 4.43333 121.917ZM121.917 128.567H74.8901C74.9396 128.495 74.9928 128.426 75.0497 128.361L80.68 122.73C81.0188 122.391 81.2386 121.952 81.3066 121.477C81.3745 121.003 81.2869 120.519 81.0569 120.099C80.1103 118.358 79.3452 116.524 78.7737 114.626C78.6361 114.17 78.3556 113.771 77.9736 113.487C77.5915 113.203 77.1283 113.05 76.6523 113.05H68.7167C68.1288 113.05 67.565 112.816 67.1492 112.401C66.7335 111.985 66.5 111.421 66.5 110.833V101.967C66.5 101.379 66.7335 100.815 67.1492 100.399C67.565 99.9835 68.1288 99.75 68.7167 99.75H76.6523C77.1283 99.7498 77.5915 99.5965 77.9736 99.3127C78.3556 99.0288 78.6361 98.6296 78.7737 98.174C79.3452 96.2762 80.1103 94.4423 81.0569 92.701C81.2869 92.2806 81.3745 91.797 81.3066 91.3227C81.2386 90.8483 81.0188 90.4087 80.68 90.0698L75.0497 84.4373C74.8445 84.2331 74.6817 83.9905 74.5706 83.7233C74.4596 83.456 74.4024 83.1695 74.4024 82.8801C74.4024 82.5907 74.4596 82.3041 74.5706 82.0369C74.6817 81.7696 74.8445 81.527 75.0497 81.3229L81.3229 75.0497C81.7421 74.6479 82.3004 74.4235 82.8812 74.4235C83.4619 74.4235 84.0202 74.6479 84.4395 75.0497L90.0698 80.68C90.4087 81.0188 90.8483 81.2386 91.3227 81.3066C91.797 81.3745 92.2806 81.2869 92.701 81.0569C94.4402 80.1082 96.2738 79.3438 98.1717 78.7759C98.6281 78.6386 99.0281 78.3579 99.3124 77.9754C99.5967 77.5929 99.7502 77.1289 99.75 76.6523V68.7167C99.75 68.1288 99.9835 67.565 100.399 67.1492C100.815 66.7335 101.379 66.5 101.967 66.5H110.833C111.421 66.5 111.985 66.7335 112.401 67.1492C112.816 67.565 113.05 68.1288 113.05 68.7167V76.6523C113.05 77.1289 113.203 77.5929 113.488 77.9754C113.772 78.3579 114.172 78.6386 114.628 78.7759C116.528 79.3471 118.366 80.1075 120.115 81.0458C120.534 81.2707 121.014 81.3549 121.485 81.2858C121.955 81.2168 122.391 80.9981 122.728 80.6623L128.361 75.0497C128.426 74.9921 128.495 74.9389 128.567 74.8901V121.917C128.567 123.68 127.866 125.372 126.619 126.619C125.372 127.866 123.68 128.567 121.917 128.567Z" fill="url(#paint0_linear)"/>
<path d="M15.5167 19.95C16.8319 19.95 18.1176 19.56 19.2112 18.8293C20.3048 18.0986 21.1571 17.06 21.6605 15.8448C22.1638 14.6297 22.2955 13.2926 22.0389 12.0026C21.7823 10.7127 21.1489 9.52776 20.2189 8.59774C19.2889 7.66772 18.104 7.03437 16.814 6.77778C15.524 6.52118 14.187 6.65288 12.9718 7.1562C11.7567 7.65952 10.7181 8.51187 9.98739 9.60545C9.25668 10.699 8.86667 11.9847 8.86667 13.3C8.86667 15.0637 9.56729 16.7551 10.8144 18.0023C12.0615 19.2494 13.753 19.95 15.5167 19.95ZM15.5167 11.0833C15.9551 11.0833 16.3837 11.2133 16.7482 11.4569C17.1127 11.7005 17.3968 12.0467 17.5646 12.4517C17.7324 12.8568 17.7763 13.3025 17.6907 13.7324C17.6052 14.1624 17.3941 14.5574 17.0841 14.8674C16.7741 15.1774 16.3791 15.3885 15.9491 15.4741C15.5191 15.5596 15.0734 15.5157 14.6684 15.3479C14.2633 15.1802 13.9171 14.896 13.6736 14.5315C13.43 14.167 13.3 13.7384 13.3 13.3C13.3 12.7121 13.5335 12.1483 13.9492 11.7326C14.365 11.3169 14.9288 11.0833 15.5167 11.0833Z" fill="url(#paint1_linear)"/>
<path d="M31.0333 19.95C32.3486 19.95 33.6343 19.56 34.7279 18.8293C35.8215 18.0986 36.6738 17.06 37.1771 15.8448C37.6805 14.6297 37.8121 13.2926 37.5556 12.0026C37.299 10.7127 36.6656 9.52776 35.7356 8.59774C34.8056 7.66772 33.6207 7.03437 32.3307 6.77778C31.0407 6.52118 29.7036 6.65288 28.4885 7.1562C27.2734 7.65952 26.2348 8.51187 25.5041 9.60545C24.7734 10.699 24.3833 11.9847 24.3833 13.3C24.3833 15.0637 25.084 16.7551 26.3311 18.0023C27.5782 19.2494 29.2696 19.95 31.0333 19.95ZM31.0333 11.0833C31.4717 11.0833 31.9003 11.2133 32.2648 11.4569C32.6294 11.7005 32.9135 12.0467 33.0813 12.4517C33.249 12.8568 33.2929 13.3025 33.2074 13.7324C33.1219 14.1624 32.9108 14.5574 32.6008 14.8674C32.2907 15.1774 31.8958 15.3885 31.4658 15.4741C31.0358 15.5596 30.5901 15.5157 30.1851 15.3479C29.78 15.1802 29.4338 14.896 29.1902 14.5315C28.9467 14.167 28.8167 13.7384 28.8167 13.3C28.8167 12.7121 29.0502 12.1483 29.4659 11.7326C29.8816 11.3169 30.4454 11.0833 31.0333 11.0833Z" fill="url(#paint2_linear)"/>
<path d="M46.55 19.95C47.8652 19.95 49.151 19.56 50.2445 18.8293C51.3381 18.0986 52.1905 17.06 52.6938 15.8448C53.1971 14.6297 53.3288 13.2926 53.0722 12.0026C52.8156 10.7127 52.1823 9.52776 51.2523 8.59774C50.3222 7.66772 49.1373 7.03437 47.8474 6.77778C46.5574 6.52118 45.2203 6.65288 44.0052 7.1562C42.79 7.65952 41.7514 8.51187 41.0207 9.60545C40.29 10.699 39.9 11.9847 39.9 13.3C39.9 15.0637 40.6006 16.7551 41.8477 18.0023C43.0949 19.2494 44.7863 19.95 46.55 19.95ZM46.55 11.0833C46.9884 11.0833 47.417 11.2133 47.7815 11.4569C48.146 11.7005 48.4302 12.0467 48.5979 12.4517C48.7657 12.8568 48.8096 13.3025 48.7241 13.7324C48.6385 14.1624 48.4274 14.5574 48.1174 14.8674C47.8074 15.1774 47.4124 15.3885 46.9825 15.4741C46.5525 15.5596 46.1068 15.5157 45.7017 15.3479C45.2967 15.1802 44.9505 14.896 44.7069 14.5315C44.4633 14.167 44.3333 13.7384 44.3333 13.3C44.3333 12.7121 44.5669 12.1483 44.9826 11.7326C45.3983 11.3169 45.9621 11.0833 46.55 11.0833Z" fill="url(#paint3_linear)"/>
<path d="M106.4 88.6667C102.893 88.6667 99.4641 89.7067 96.5479 91.6553C93.6317 93.6038 91.3587 96.3734 90.0165 99.6137C88.6743 102.854 88.3232 106.42 89.0074 109.86C89.6917 113.3 91.3806 116.459 93.8606 118.939C96.3407 121.419 99.5005 123.108 102.94 123.793C106.38 124.477 109.946 124.126 113.186 122.783C116.427 121.441 119.196 119.168 121.145 116.252C123.093 113.336 124.133 109.907 124.133 106.4C124.128 101.698 122.258 97.191 118.934 93.8665C115.609 90.542 111.102 88.6719 106.4 88.6667ZM106.4 119.7C103.77 119.7 101.198 118.92 99.0109 117.459C96.8238 115.997 95.119 113.92 94.1124 111.49C93.1058 109.059 92.8424 106.385 93.3556 103.805C93.8687 101.225 95.1354 98.8555 96.9955 96.9955C98.8555 95.1354 101.225 93.8687 103.805 93.3555C106.385 92.8424 109.059 93.1057 111.49 94.1124C113.92 95.119 115.997 96.8237 117.459 99.0109C118.92 101.198 119.7 103.77 119.7 106.4C119.696 109.926 118.294 113.307 115.801 115.801C113.307 118.294 109.926 119.696 106.4 119.7Z" fill="url(#paint4_linear)"/>
<path d="M15.5167 66.5C16.1046 66.5 16.6684 66.2665 17.0841 65.8507C17.4998 65.435 17.7333 64.8712 17.7333 64.2833V53.2H26.6V64.2833C26.6 64.8712 26.8335 65.435 27.2492 65.8507C27.665 66.2665 28.2288 66.5 28.8167 66.5C29.4046 66.5 29.9684 66.2665 30.3841 65.8507C30.7998 65.435 31.0333 64.8712 31.0333 64.2833V44.3333C31.0333 41.9817 30.0992 39.7265 28.4363 38.0636C26.7735 36.4008 24.5183 35.4667 22.1667 35.4667C19.8151 35.4667 17.5598 36.4008 15.897 38.0636C14.2342 39.7265 13.3 41.9817 13.3 44.3333V64.2833C13.3 64.8712 13.5335 65.435 13.9492 65.8507C14.365 66.2665 14.9288 66.5 15.5167 66.5ZM22.1667 39.9C23.3425 39.9 24.4701 40.3671 25.3015 41.1985C26.1329 42.0299 26.6 43.1575 26.6 44.3333V48.7667H17.7333V44.3333C17.7333 43.1575 18.2004 42.0299 19.0318 41.1985C19.8632 40.3671 20.9909 39.9 22.1667 39.9Z" fill="url(#paint5_linear)"/>
<path d="M37.6833 66.5C38.2712 66.5 38.8351 66.2665 39.2508 65.8507C39.6665 65.435 39.9 64.8712 39.9 64.2833V53.2H46.55C48.3137 53.2 50.0051 52.4994 51.2523 51.2523C52.4994 50.0051 53.2 48.3137 53.2 46.55V42.1167C53.2 40.353 52.4994 38.6615 51.2523 37.4144C50.0051 36.1673 48.3137 35.4667 46.55 35.4667H37.6833C37.0954 35.4667 36.5316 35.7002 36.1159 36.1159C35.7002 36.5316 35.4667 37.0954 35.4667 37.6833V64.2833C35.4667 64.8712 35.7002 65.435 36.1159 65.8507C36.5316 66.2665 37.0954 66.5 37.6833 66.5ZM39.9 39.9H46.55C47.1379 39.9 47.7017 40.1335 48.1174 40.5492C48.5331 40.9649 48.7667 41.5288 48.7667 42.1167V46.55C48.7667 47.1379 48.5331 47.7017 48.1174 48.1174C47.7017 48.5331 47.1379 48.7667 46.55 48.7667H39.9V39.9Z" fill="url(#paint6_linear)"/>
<path d="M59.85 66.5C60.4379 66.5 61.0017 66.2665 61.4174 65.8507C61.8331 65.435 62.0667 64.8712 62.0667 64.2833V37.6833C62.0667 37.0954 61.8331 36.5316 61.4174 36.1159C61.0017 35.7002 60.4379 35.4667 59.85 35.4667C59.2621 35.4667 58.6983 35.7002 58.2826 36.1159C57.8669 36.5316 57.6333 37.0954 57.6333 37.6833V64.2833C57.6333 64.8712 57.8669 65.435 58.2826 65.8507C58.6983 66.2665 59.2621 66.5 59.85 66.5Z" fill="url(#paint7_linear)"/>
<path d="M15.5167 79.8H59.85C60.4379 79.8 61.0017 79.5665 61.4174 79.1507C61.8331 78.735 62.0667 78.1712 62.0667 77.5833C62.0667 76.9954 61.8331 76.4316 61.4174 76.0159C61.0017 75.6002 60.4379 75.3667 59.85 75.3667H15.5167C14.9288 75.3667 14.365 75.6002 13.9492 76.0159C13.5335 76.4316 13.3 76.9954 13.3 77.5833C13.3 78.1712 13.5335 78.735 13.9492 79.1507C14.365 79.5665 14.9288 79.8 15.5167 79.8Z" fill="url(#paint8_linear)"/>
<path d="M59.85 88.6667H15.5167C14.9288 88.6667 14.365 88.9002 13.9492 89.3159C13.5335 89.7316 13.3 90.2954 13.3 90.8833C13.3 91.4712 13.5335 92.035 13.9492 92.4507C14.365 92.8664 14.9288 93.1 15.5167 93.1H59.85C60.4379 93.1 61.0017 92.8664 61.4174 92.4507C61.8331 92.035 62.0667 91.4712 62.0667 90.8833C62.0667 90.2954 61.8331 89.7316 61.4174 89.3159C61.0017 88.9002 60.4379 88.6667 59.85 88.6667Z" fill="url(#paint9_linear)"/>
<path d="M53.2 101.967H15.5167C14.9288 101.967 14.365 102.2 13.9492 102.616C13.5335 103.032 13.3 103.595 13.3 104.183C13.3 104.771 13.5335 105.335 13.9492 105.751C14.365 106.166 14.9288 106.4 15.5167 106.4H53.2C53.7879 106.4 54.3517 106.166 54.7674 105.751C55.1831 105.335 55.4167 104.771 55.4167 104.183C55.4167 103.595 55.1831 103.032 54.7674 102.616C54.3517 102.2 53.7879 101.967 53.2 101.967Z" fill="url(#paint10_linear)"/>
<defs>
<linearGradient id="paint0_linear" x1="66.5" y1="6.65" x2="66.5" y2="124.133" gradientUnits="userSpaceOnUse">
<stop stop-color="#00D1C5"/>
<stop offset="1" stop-color="#DC4A7F"/>
</linearGradient>
<linearGradient id="paint1_linear" x1="66.5" y1="6.65" x2="66.5" y2="124.133" gradientUnits="userSpaceOnUse">
<stop stop-color="#00D1C5"/>
<stop offset="1" stop-color="#DC4A7F"/>
</linearGradient>
<linearGradient id="paint2_linear" x1="66.5" y1="6.65" x2="66.5" y2="124.133" gradientUnits="userSpaceOnUse">
<stop stop-color="#00D1C5"/>
<stop offset="1" stop-color="#DC4A7F"/>
</linearGradient>
<linearGradient id="paint3_linear" x1="66.5" y1="6.65" x2="66.5" y2="124.133" gradientUnits="userSpaceOnUse">
<stop stop-color="#00D1C5"/>
<stop offset="1" stop-color="#DC4A7F"/>
</linearGradient>
<linearGradient id="paint4_linear" x1="66.5" y1="6.65" x2="66.5" y2="124.133" gradientUnits="userSpaceOnUse">
<stop stop-color="#00D1C5"/>
<stop offset="1" stop-color="#DC4A7F"/>
</linearGradient>
<linearGradient id="paint5_linear" x1="66.5" y1="6.65" x2="66.5" y2="124.133" gradientUnits="userSpaceOnUse">
<stop stop-color="#00D1C5"/>
<stop offset="1" stop-color="#DC4A7F"/>
</linearGradient>
<linearGradient id="paint6_linear" x1="66.5" y1="6.65" x2="66.5" y2="124.133" gradientUnits="userSpaceOnUse">
<stop stop-color="#00D1C5"/>
<stop offset="1" stop-color="#DC4A7F"/>
</linearGradient>
<linearGradient id="paint7_linear" x1="66.5" y1="6.65" x2="66.5" y2="124.133" gradientUnits="userSpaceOnUse">
<stop stop-color="#00D1C5"/>
<stop offset="1" stop-color="#DC4A7F"/>
</linearGradient>
<linearGradient id="paint8_linear" x1="66.5" y1="6.65" x2="66.5" y2="124.133" gradientUnits="userSpaceOnUse">
<stop stop-color="#00D1C5"/>
<stop offset="1" stop-color="#DC4A7F"/>
</linearGradient>
<linearGradient id="paint9_linear" x1="66.5" y1="6.65" x2="66.5" y2="124.133" gradientUnits="userSpaceOnUse">
<stop stop-color="#00D1C5"/>
<stop offset="1" stop-color="#DC4A7F"/>
</linearGradient>
<linearGradient id="paint10_linear" x1="66.5" y1="6.65" x2="66.5" y2="124.133" gradientUnits="userSpaceOnUse">
<stop stop-color="#00D1C5"/>
<stop offset="1" stop-color="#DC4A7F"/>
</linearGradient>
</defs>
</svg>
