<svg width="250" height="56" viewBox="0 0 250 56" fill="none" xmlns="http://www.w3.org/2000/svg">
<path d="M243 5L224.3 23.7M243 5L231.1 39L224.3 23.7M243 5L209 16.9L224.3 23.7" stroke="url(#paint0_linear)" stroke-width="3" stroke-linecap="round" stroke-linejoin="round"/>
<path d="M12.848 31.7C14.08 31.7 15.0187 31.4213 15.664 30.864C16.3387 30.2773 16.676 29.3973 16.676 28.224C16.676 27.1093 16.324 26.2587 15.62 25.672C14.9453 25.056 13.948 24.748 12.628 24.748C12.1587 24.748 11.7627 24.7627 11.44 24.792C11.1467 24.792 10.8387 24.8213 10.516 24.88V31.7H12.848ZM10.56 45.824C10.2373 45.912 9.724 46 9.02 46.088C8.34533 46.176 7.67067 46.22 6.996 46.22C6.32133 46.22 5.72 46.1613 5.192 46.044C4.69333 45.956 4.268 45.78 3.916 45.516C3.564 45.252 3.3 44.8853 3.124 44.416C2.948 43.9467 2.86 43.3307 2.86 42.568V21.844C2.86 21.228 3.02133 20.7587 3.344 20.436C3.696 20.084 4.16533 19.8053 4.752 19.6C5.74933 19.248 6.87867 18.9987 8.14 18.852C9.43067 18.676 10.7213 18.588 12.012 18.588C16.06 18.588 19.1547 19.4533 21.296 21.184C23.4373 22.9147 24.508 25.2613 24.508 28.224C24.508 29.6613 24.2733 30.9667 23.804 32.14C23.364 33.284 22.6893 34.2813 21.78 35.132C20.9 35.9533 19.7707 36.5987 18.392 37.068C17.0427 37.508 15.4733 37.728 13.684 37.728H10.56V45.824ZM36.5767 41.248C37.0754 41.248 37.6181 41.204 38.2047 41.116C38.8207 40.9987 39.2754 40.852 39.5687 40.676V37.156L36.4007 37.42C35.5794 37.4787 34.9047 37.6547 34.3767 37.948C33.8487 38.2413 33.5847 38.6813 33.5847 39.268C33.5847 39.8547 33.8047 40.3387 34.2447 40.72C34.7141 41.072 35.4914 41.248 36.5767 41.248ZM36.2247 23.956C37.8087 23.956 39.2461 24.1173 40.5367 24.44C41.8567 24.7627 42.9714 25.2613 43.8807 25.936C44.8194 26.5813 45.5381 27.4173 46.0367 28.444C46.5354 29.4413 46.7847 30.6293 46.7847 32.008V41.864C46.7847 42.6267 46.5647 43.2573 46.1247 43.756C45.7141 44.2253 45.2154 44.636 44.6287 44.988C42.7221 46.132 40.0381 46.704 36.5767 46.704C35.0221 46.704 33.6141 46.5573 32.3527 46.264C31.1207 45.9707 30.0501 45.5307 29.1407 44.944C28.2607 44.3573 27.5714 43.6093 27.0727 42.7C26.6034 41.7907 26.3687 40.7347 26.3687 39.532C26.3687 37.508 26.9701 35.9533 28.1727 34.868C29.3754 33.7827 31.2381 33.108 33.7607 32.844L39.5247 32.228V31.92C39.5247 31.0693 39.1434 30.468 38.3807 30.116C37.6474 29.7347 36.5767 29.544 35.1687 29.544C34.0541 29.544 32.9687 29.6613 31.9127 29.896C30.8567 30.1307 29.9034 30.424 29.0527 30.776C28.6714 30.512 28.3487 30.116 28.0847 29.588C27.8207 29.0307 27.6887 28.4587 27.6887 27.872C27.6887 27.1093 27.8647 26.508 28.2167 26.068C28.5981 25.5987 29.1701 25.2027 29.9327 24.88C30.7834 24.5573 31.7807 24.3227 32.9247 24.176C34.0981 24.0293 35.1981 23.956 36.2247 23.956ZM61.1703 23.956C62.9303 23.956 64.5583 24.1907 66.0543 24.66C67.5796 25.1 68.885 25.7893 69.9703 26.728C71.0556 27.6667 71.9063 28.8547 72.5223 30.292C73.1383 31.7 73.4463 33.3867 73.4463 35.352C73.4463 37.2293 73.1823 38.872 72.6543 40.28C72.1263 41.688 71.3783 42.876 70.4103 43.844C69.4423 44.7827 68.269 45.4867 66.8903 45.956C65.541 46.4253 64.0303 46.66 62.3583 46.66C61.097 46.66 59.9236 46.4693 58.8383 46.088V53.392C58.545 53.48 58.0756 53.568 57.4303 53.656C56.785 53.7733 56.125 53.832 55.4503 53.832C54.805 53.832 54.2183 53.788 53.6903 53.7C53.1916 53.612 52.7663 53.436 52.4143 53.172C52.0623 52.908 51.7983 52.5413 51.6223 52.072C51.4463 51.632 51.3583 51.0453 51.3583 50.312V29.192C51.3583 28.4 51.5196 27.7547 51.8423 27.256C52.1943 26.7573 52.6636 26.3027 53.2503 25.892C54.1596 25.3053 55.289 24.836 56.6383 24.484C57.9876 24.132 59.4983 23.956 61.1703 23.956ZM61.2583 40.764C64.2796 40.764 65.7903 38.96 65.7903 35.352C65.7903 33.4747 65.409 32.0813 64.6463 31.172C63.913 30.2627 62.8423 29.808 61.4343 29.808C60.877 29.808 60.3783 29.8813 59.9383 30.028C59.4983 30.1453 59.117 30.292 58.7943 30.468V40.148C59.1463 40.324 59.5276 40.4707 59.9383 40.588C60.349 40.7053 60.789 40.764 61.2583 40.764ZM84.5766 45.956C84.2833 46.044 83.8139 46.132 83.1686 46.22C82.5526 46.308 81.9073 46.352 81.2326 46.352C80.5873 46.352 80.0006 46.308 79.4726 46.22C78.9739 46.132 78.5486 45.956 78.1966 45.692C77.8446 45.428 77.5659 45.076 77.3606 44.636C77.1846 44.1667 77.0966 43.5653 77.0966 42.832V29.632C77.0966 28.9573 77.2139 28.3853 77.4486 27.916C77.7126 27.4173 78.0793 26.9773 78.5486 26.596C79.0179 26.2147 79.5899 25.8773 80.2646 25.584C80.9686 25.2613 81.7166 24.9827 82.5086 24.748C83.3006 24.5133 84.1219 24.3373 84.9726 24.22C85.8233 24.0733 86.6739 24 87.5246 24C88.9326 24 90.0473 24.2787 90.8686 24.836C91.6899 25.364 92.1006 26.244 92.1006 27.476C92.1006 27.8867 92.0419 28.2973 91.9246 28.708C91.8073 29.0893 91.6606 29.4413 91.4846 29.764C90.8686 29.764 90.2379 29.7933 89.5926 29.852C88.9473 29.9107 88.3166 29.9987 87.7006 30.116C87.0846 30.2333 86.4979 30.3653 85.9406 30.512C85.4126 30.6293 84.9579 30.776 84.5766 30.952V45.956ZM94.5264 25.496C94.3211 25.1733 94.1304 24.7333 93.9544 24.176C93.7784 23.6187 93.6904 23.032 93.6904 22.416C93.6904 21.272 93.9398 20.4507 94.4384 19.952C94.9664 19.4533 95.6411 19.204 96.4624 19.204H115.646C115.852 19.5267 116.042 19.9667 116.218 20.524C116.394 21.0813 116.482 21.668 116.482 22.284C116.482 23.428 116.218 24.2493 115.69 24.748C115.192 25.2467 114.532 25.496 113.71 25.496H108.826V45.824C108.504 45.912 107.99 46 107.286 46.088C106.612 46.176 105.937 46.22 105.262 46.22C104.588 46.22 103.986 46.1613 103.458 46.044C102.96 45.956 102.534 45.78 102.182 45.516C101.83 45.252 101.566 44.8853 101.39 44.416C101.214 43.9467 101.126 43.3307 101.126 42.568V25.496H94.5264ZM125.354 45.956C125.061 46.044 124.591 46.132 123.946 46.22C123.33 46.308 122.685 46.352 122.01 46.352C121.365 46.352 120.778 46.308 120.25 46.22C119.751 46.132 119.326 45.956 118.974 45.692C118.622 45.428 118.343 45.076 118.138 44.636C117.962 44.1667 117.874 43.5653 117.874 42.832V29.632C117.874 28.9573 117.991 28.3853 118.226 27.916C118.49 27.4173 118.857 26.9773 119.326 26.596C119.795 26.2147 120.367 25.8773 121.042 25.584C121.746 25.2613 122.494 24.9827 123.286 24.748C124.078 24.5133 124.899 24.3373 125.75 24.22C126.601 24.0733 127.451 24 128.302 24C129.71 24 130.825 24.2787 131.646 24.836C132.467 25.364 132.878 26.244 132.878 27.476C132.878 27.8867 132.819 28.2973 132.702 28.708C132.585 29.0893 132.438 29.4413 132.262 29.764C131.646 29.764 131.015 29.7933 130.37 29.852C129.725 29.9107 129.094 29.9987 128.478 30.116C127.862 30.2333 127.275 30.3653 126.718 30.512C126.19 30.6293 125.735 30.776 125.354 30.952V45.956ZM144.471 41.248C144.97 41.248 145.513 41.204 146.099 41.116C146.715 40.9987 147.17 40.852 147.463 40.676V37.156L144.295 37.42C143.474 37.4787 142.799 37.6547 142.271 37.948C141.743 38.2413 141.479 38.6813 141.479 39.268C141.479 39.8547 141.699 40.3387 142.139 40.72C142.609 41.072 143.386 41.248 144.471 41.248ZM144.119 23.956C145.703 23.956 147.141 24.1173 148.431 24.44C149.751 24.7627 150.866 25.2613 151.775 25.936C152.714 26.5813 153.433 27.4173 153.931 28.444C154.43 29.4413 154.679 30.6293 154.679 32.008V41.864C154.679 42.6267 154.459 43.2573 154.019 43.756C153.609 44.2253 153.11 44.636 152.523 44.988C150.617 46.132 147.933 46.704 144.471 46.704C142.917 46.704 141.509 46.5573 140.247 46.264C139.015 45.9707 137.945 45.5307 137.035 44.944C136.155 44.3573 135.466 43.6093 134.967 42.7C134.498 41.7907 134.263 40.7347 134.263 39.532C134.263 37.508 134.865 35.9533 136.067 34.868C137.27 33.7827 139.133 33.108 141.655 32.844L147.419 32.228V31.92C147.419 31.0693 147.038 30.468 146.275 30.116C145.542 29.7347 144.471 29.544 143.063 29.544C141.949 29.544 140.863 29.6613 139.807 29.896C138.751 30.1307 137.798 30.424 136.947 30.776C136.566 30.512 136.243 30.116 135.979 29.588C135.715 29.0307 135.583 28.4587 135.583 27.872C135.583 27.1093 135.759 26.508 136.111 26.068C136.493 25.5987 137.065 25.2027 137.827 24.88C138.678 24.5573 139.675 24.3227 140.819 24.176C141.993 24.0293 143.093 23.956 144.119 23.956ZM158.329 35.308C158.329 33.372 158.622 31.7 159.209 30.292C159.796 28.8547 160.602 27.6667 161.629 26.728C162.685 25.7893 163.902 25.1 165.281 24.66C166.689 24.1907 168.2 23.956 169.813 23.956C170.4 23.956 170.972 24.0147 171.529 24.132C172.086 24.22 172.541 24.3373 172.893 24.484V17.356C173.186 17.268 173.656 17.18 174.301 17.092C174.946 16.9747 175.606 16.916 176.281 16.916C176.926 16.916 177.498 16.96 177.997 17.048C178.525 17.136 178.965 17.312 179.317 17.576C179.669 17.84 179.933 18.2067 180.109 18.676C180.285 19.116 180.373 19.7027 180.373 20.436V41.292C180.373 42.6707 179.728 43.7707 178.437 44.592C177.586 45.1493 176.486 45.6333 175.137 46.044C173.788 46.484 172.233 46.704 170.473 46.704C168.566 46.704 166.85 46.44 165.325 45.912C163.829 45.384 162.553 44.6213 161.497 43.624C160.47 42.6267 159.678 41.4387 159.121 40.06C158.593 38.652 158.329 37.068 158.329 35.308ZM170.825 29.808C169.241 29.808 168.024 30.2627 167.173 31.172C166.322 32.0813 165.897 33.46 165.897 35.308C165.897 37.1267 166.293 38.5053 167.085 39.444C167.877 40.3533 169.021 40.808 170.517 40.808C171.045 40.808 171.514 40.7347 171.925 40.588C172.365 40.412 172.702 40.2213 172.937 40.016V30.336C172.35 29.984 171.646 29.808 170.825 29.808ZM192.514 45.956C192.221 46.044 191.751 46.132 191.106 46.22C190.49 46.308 189.845 46.352 189.17 46.352C188.525 46.352 187.938 46.308 187.41 46.22C186.911 46.132 186.486 45.956 186.134 45.692C185.782 45.428 185.503 45.076 185.298 44.636C185.122 44.1667 185.034 43.5653 185.034 42.832V29.632C185.034 28.9573 185.151 28.3853 185.386 27.916C185.65 27.4173 186.017 26.9773 186.486 26.596C186.955 26.2147 187.527 25.8773 188.202 25.584C188.906 25.2613 189.654 24.9827 190.446 24.748C191.238 24.5133 192.059 24.3373 192.91 24.22C193.761 24.0733 194.611 24 195.462 24C196.87 24 197.985 24.2787 198.806 24.836C199.627 25.364 200.038 26.244 200.038 27.476C200.038 27.8867 199.979 28.2973 199.862 28.708C199.745 29.0893 199.598 29.4413 199.422 29.764C198.806 29.764 198.175 29.7933 197.53 29.852C196.885 29.9107 196.254 29.9987 195.638 30.116C195.022 30.2333 194.435 30.3653 193.878 30.512C193.35 30.6293 192.895 30.776 192.514 30.952V45.956Z" fill="#00D1C5"/>
<defs>
<linearGradient id="paint0_linear" x1="226" y1="5" x2="226" y2="39" gradientUnits="userSpaceOnUse">
<stop stop-color="#DC4A7F"/>
<stop offset="1" stop-color="#00D1C5"/>
</linearGradient>
</defs>
</svg>
