<svg width="133" height="133" viewBox="0 0 133 133" fill="none" xmlns="http://www.w3.org/2000/svg">
<path d="M125.897 41.9468C123.6 41.5191 121.225 41.9797 119.26 43.234C117.295 44.4883 115.888 46.4411 115.328 48.6919L110.05 68.1979C108.667 67.2899 107.056 66.7828 105.398 66.7335C103.74 66.6841 102.101 67.0946 100.666 67.9186L85.3865 76.8094C82.3654 78.5736 79.8596 81.0879 78.1158 84.1047C76.3719 87.1215 75.4501 90.5369 75.441 94.0145V110.834H70.9722C70.3796 110.834 69.8112 111.068 69.3922 111.483C68.9732 111.899 68.7378 112.463 68.7378 113.051V130.783C68.7378 131.371 68.9732 131.935 69.3922 132.351C69.8112 132.766 70.3796 133 70.9722 133H111.192C111.785 133 112.353 132.766 112.772 132.351C113.191 131.935 113.426 131.371 113.426 130.783V113.051C113.426 112.463 113.191 111.899 112.772 111.483C112.353 111.068 111.785 110.834 111.192 110.834H106.723V108.263C106.723 107.304 106.932 106.356 107.336 105.484C107.739 104.612 108.329 103.838 109.062 103.213L119.482 94.347C121.193 92.8954 122.421 90.9634 123.003 88.8056L132.698 52.9145C132.902 52.162 133.003 51.386 133 50.607C132.989 48.5763 132.279 46.6104 130.987 45.0353C129.695 43.4601 127.899 42.3704 125.897 41.9468ZM108.957 128.567H73.2066V115.267H108.957V128.567ZM128.384 51.7641L118.686 87.6596C118.338 88.9545 117.602 90.114 116.575 90.9845L106.156 99.8508C104.932 100.891 103.95 102.181 103.277 103.633C102.603 105.085 102.255 106.665 102.254 108.263V110.834H79.9099V94.0145C79.9156 91.3102 80.631 88.6539 81.9858 86.3072C83.3406 83.9604 85.2881 82.0041 87.6366 80.6308L102.898 71.7489C103.578 71.3614 104.348 71.1573 105.132 71.157C105.962 71.1497 106.776 71.3746 107.482 71.8059C108.189 72.2372 108.758 72.8574 109.125 73.5953C109.614 74.6668 109.675 75.882 109.298 76.9968C108.92 78.1115 108.131 79.0432 107.09 79.6045L94.5767 86.7574C94.3223 86.903 94.0993 87.0968 93.9204 87.3278C93.7415 87.5589 93.6102 87.8226 93.5341 88.104C93.4579 88.3854 93.4384 88.6789 93.4766 88.9677C93.5148 89.2566 93.6099 89.5351 93.7567 89.7875C93.9034 90.0399 94.0988 90.2611 94.3317 90.4386C94.5646 90.616 94.8304 90.7463 95.1141 90.8218C95.3977 90.8973 95.6935 90.9167 95.9847 90.8788C96.2759 90.841 96.5567 90.7465 96.8111 90.601L109.324 83.4481C111.198 82.4118 112.645 80.7532 113.408 78.7639C114.172 76.7746 114.205 74.5819 113.5 72.5712L119.647 49.8511C119.926 48.7041 120.629 47.7029 121.617 47.046C122.604 46.389 123.805 46.1244 124.981 46.3046C125.977 46.5151 126.872 47.0561 127.518 47.8386C128.163 48.6211 128.52 49.5983 128.531 50.6092C128.534 50.999 128.484 51.3874 128.384 51.7641Z" fill="url(#paint0_linear)"/>
<path d="M62.0345 110.834H57.5656V94.0145C57.5581 90.5376 56.6382 87.1225 54.8963 84.1053C53.1544 81.0882 50.6506 78.5729 47.6313 76.8071L32.3344 67.9053C30.8977 67.0835 29.2585 66.6752 27.6009 66.7261C25.9432 66.777 24.3326 67.2851 22.9498 68.1935L17.6744 48.6874C17.1116 46.4375 15.7034 44.4859 13.7379 43.232C11.7724 41.9781 9.39817 41.5168 7.10105 41.9423C5.91321 42.1913 4.78883 42.6773 3.7963 43.3709C2.80378 44.0644 1.96385 44.9511 1.32761 45.9768C0.691377 47.0025 0.272131 48.1459 0.0953756 49.3375C-0.0813797 50.529 -0.0119488 51.7438 0.299444 52.9078L9.99686 88.8033C10.5773 90.9614 11.8045 92.8938 13.5161 94.3448L23.9352 103.211C24.6711 103.835 25.2621 104.61 25.6675 105.482C26.0729 106.354 26.2831 107.303 26.2836 108.263V110.834H21.8148C21.2222 110.834 20.6538 111.068 20.2348 111.483C19.8157 111.899 19.5803 112.463 19.5803 113.051V130.783C19.5803 131.371 19.8157 131.935 20.2348 132.351C20.6538 132.766 21.2222 133 21.8148 133H62.0345C62.6271 133 63.1954 132.766 63.6145 132.351C64.0335 131.935 64.2689 131.371 64.2689 130.783V113.051C64.2689 112.463 64.0335 111.899 63.6145 111.483C63.1954 111.068 62.6271 110.834 62.0345 110.834ZM26.8512 99.8464L16.432 90.98C15.4041 90.1102 14.6676 88.9504 14.3205 87.6551L4.62306 51.7618C4.52237 51.3859 4.47277 50.9982 4.47559 50.6092C4.48192 49.5942 4.83796 48.6119 5.4846 47.8252C6.13123 47.0386 7.02959 46.495 8.03057 46.2846C9.20575 46.106 10.4057 46.3713 11.3933 47.028C12.3808 47.6847 13.0841 48.685 13.3641 49.8312L19.5111 72.5491C18.806 74.5601 18.8382 76.7533 19.602 78.743C20.3658 80.7328 21.8123 82.3917 23.6872 83.4281L36.2 90.581C36.7138 90.875 37.3243 90.9544 37.8971 90.8019C38.4699 90.6493 38.9582 90.2772 39.2545 89.7676C39.5508 89.2579 39.6308 88.6523 39.4771 88.084C39.3233 87.5158 38.9482 87.0314 38.4344 86.7375L25.9216 79.5845C24.8795 79.0236 24.0901 78.0921 23.712 76.9773C23.334 75.8625 23.3954 74.6471 23.8838 73.5753C24.2537 72.8427 24.8234 72.2277 25.528 71.8002C26.2327 71.3727 27.0441 71.1499 27.8701 71.157C28.6488 71.1553 29.4144 71.3555 30.0911 71.7378L45.3701 80.633C47.7187 82.0056 49.6663 83.9615 51.0212 86.3079C52.376 88.6544 53.0914 91.3104 53.0968 94.0145V110.834H30.7525V108.263C30.7527 106.664 30.4042 105.084 29.7307 103.631C29.0573 102.178 28.075 100.887 26.8512 99.8464ZM59.8 128.567H24.0492V115.267H59.8V128.567Z" fill="url(#paint1_linear)"/>
<path d="M102.254 30.1501V2.22097C102.255 1.83151 102.152 1.44872 101.956 1.11114C101.761 0.773567 101.479 0.493127 101.139 0.298062C100.799 0.102997 100.413 0.000191979 100.021 2.68619e-07C99.6283 -0.000191442 99.2426 0.102236 98.9025 0.29697L95.7185 2.10128C92.2074 4.09656 88.2533 5.19922 84.2085 5.31099C80.1637 5.42276 76.1539 4.54017 72.5363 2.74187L67.4842 0.237122C67.1741 0.0833823 66.8322 0.00334659 66.4855 0.00334659C66.1388 0.00334659 65.7968 0.0833823 65.4867 0.237122L60.4704 2.73301C56.8524 4.53443 52.8411 5.41931 48.7945 5.30869C44.7478 5.19808 40.7918 4.0954 37.2792 2.09906L34.1041 0.29697C33.7641 0.102236 33.3784 -0.000191442 32.9858 2.68619e-07C32.5932 0.000191979 32.2076 0.102997 31.8678 0.298062C31.528 0.493127 31.246 0.773567 31.0502 1.11114C30.8544 1.44872 30.7517 1.83151 30.7525 2.22097V30.1501C30.7416 40.1959 33.4886 50.0549 38.6986 58.6692C43.9086 67.2835 51.3849 74.3277 60.3251 79.0459L65.4509 81.7568C65.7748 81.9283 66.1362 82.0181 66.5033 82.0181C66.8704 82.0181 67.2319 81.9283 67.5558 81.7568L72.6815 79.0459C81.6221 74.3281 89.0987 67.284 94.3087 58.6696C99.5188 50.0552 102.266 40.196 102.254 30.1501ZM66.5033 77.2904L62.43 75.1336C54.2046 70.7933 47.326 64.3128 42.5325 56.3878C37.739 48.4627 35.2115 39.3923 35.2213 30.1501V6.04016C39.3593 8.3578 44.0082 9.63063 48.7587 9.74659C53.5092 9.86255 58.2156 8.81808 62.4635 6.70514L66.4855 4.71021L70.5387 6.71844C74.7882 8.83031 79.496 9.87304 84.2474 9.75476C88.9988 9.63648 93.648 8.36082 97.7853 6.04016V30.1501C97.7956 39.3924 95.2684 48.463 90.4748 56.3881C85.6812 64.3133 78.8024 70.7937 70.5767 75.1336L66.5033 77.2904Z" fill="url(#paint2_linear)"/>
<path d="M93.3165 15.5959C93.3167 15.265 93.2421 14.9383 93.0984 14.6397C92.9547 14.3411 92.7454 14.0782 92.4859 13.8703C92.2264 13.6624 91.9233 13.5148 91.5988 13.4383C91.2743 13.3617 90.9366 13.3583 90.6106 13.4281C83.1543 15.0048 75.3797 14.0338 68.5501 10.6728L67.4954 10.1519C67.1835 9.99604 66.8392 9.91483 66.4899 9.91483C66.1407 9.91483 65.7963 9.99604 65.4844 10.1519L64.4521 10.664C57.6216 14.0296 49.844 15.003 42.3849 13.4259C42.0597 13.3579 41.7232 13.3628 41.4001 13.4402C41.077 13.5176 40.7754 13.6656 40.5172 13.8733C40.2591 14.081 40.0509 14.3432 39.9078 14.6408C39.7647 14.9384 39.6904 15.264 39.6902 15.5937V30.1501C39.6807 38.5886 41.9882 46.8704 46.3649 54.1063C50.7416 61.3422 57.0222 67.2589 64.5326 71.2213L65.4509 71.709C65.7745 71.8801 66.1355 71.9696 66.5022 71.9696C66.8689 71.9696 67.2299 71.8801 67.5535 71.709L68.4741 71.2213C75.9844 67.2589 82.2651 61.3422 86.6418 54.1063C91.0185 46.8704 93.326 38.5886 93.3165 30.1501V15.5959ZM88.8476 30.1501C88.856 37.7597 86.782 45.229 82.8469 51.7611C78.9118 58.2932 73.2631 63.6431 66.5033 67.2403C59.7436 63.6431 54.0949 58.2932 50.1598 51.7611C46.2246 45.229 44.1507 37.7597 44.159 30.1501V18.2403C51.7902 19.2909 59.5633 18.034 66.4631 14.6339L66.5033 14.6117L66.557 14.6405C73.4524 18.0393 81.2213 19.2947 88.8476 18.2425V30.1501Z" fill="url(#paint3_linear)"/>
<path d="M79.1435 26.4461L62.0345 43.4186L55.0586 36.4984C54.6372 36.0946 54.0727 35.8712 53.4869 35.8762C52.901 35.8813 52.3406 36.1144 51.9263 36.5254C51.512 36.9364 51.2771 37.4923 51.272 38.0735C51.2669 38.6547 51.4921 39.2146 51.8991 39.6326L60.4547 48.12C60.8737 48.5355 61.442 48.769 62.0345 48.769C62.627 48.769 63.1952 48.5355 63.6142 48.12L82.303 29.5804C82.5164 29.3759 82.6866 29.1313 82.8037 28.8609C82.9208 28.5905 82.9825 28.2996 82.985 28.0053C82.9876 27.711 82.9311 27.4191 82.8187 27.1467C82.7064 26.8743 82.5405 26.6268 82.3307 26.4187C82.1209 26.2105 81.8714 26.0459 81.5968 25.9345C81.3222 25.823 81.028 25.767 80.7313 25.7695C80.4346 25.7721 80.1414 25.8332 79.8688 25.9494C79.5962 26.0656 79.3496 26.2344 79.1435 26.4461Z" fill="url(#paint4_linear)"/>
<defs>
<linearGradient id="paint0_linear" x1="66.5" y1="0" x2="66.5" y2="133" gradientUnits="userSpaceOnUse">
<stop stop-color="#00D1C5"/>
<stop offset="1" stop-color="#DC4A7F"/>
</linearGradient>
<linearGradient id="paint1_linear" x1="66.5" y1="0" x2="66.5" y2="133" gradientUnits="userSpaceOnUse">
<stop stop-color="#00D1C5"/>
<stop offset="1" stop-color="#DC4A7F"/>
</linearGradient>
<linearGradient id="paint2_linear" x1="66.5" y1="0" x2="66.5" y2="133" gradientUnits="userSpaceOnUse">
<stop stop-color="#00D1C5"/>
<stop offset="1" stop-color="#DC4A7F"/>
</linearGradient>
<linearGradient id="paint3_linear" x1="66.5" y1="0" x2="66.5" y2="133" gradientUnits="userSpaceOnUse">
<stop stop-color="#00D1C5"/>
<stop offset="1" stop-color="#DC4A7F"/>
</linearGradient>
<linearGradient id="paint4_linear" x1="66.5" y1="0" x2="66.5" y2="133" gradientUnits="userSpaceOnUse">
<stop stop-color="#00D1C5"/>
<stop offset="1" stop-color="#DC4A7F"/>
</linearGradient>
</defs>
</svg>
